# xmcd
#
# Track frame offsets:
#	150
#	13457
#	26540
#	38692
#	50152
#	64127
#	72747
#	87645
#	99022
#	114240
#	129615
#	142247
#	153612
#	167787
#
# Disc length: 2413 seconds
#
# Revision: 0
# Processed by: cddbd v1.4PL0 Copyright (c) Steve Scherf et al.
# Submitted via: dBpowerAMP V4.0
#
DISCID=ce096b0e
DTITLE=Mário Zan - Bis CD1
DYEAR=1900
DGENRE=
TTITLE0=Festa na roça
TTITLE1=O meninoda porteira
TTITLE2=Mandando brasa
TTITLE3=Bailinho na roça
TTITLE4=Gotas de orvalho
TTITLE5=Esquentando o baile(assanhadinha)
TTITLE6=Estou na minha
TTITLE7=Relâmpago
TTITLE8=Um domingo à tarde
TTITLE9=Um novo amor em meu caminho
TTITLE10=Pisei na brasa
TTITLE11=Caminhos diferentes
TTITLE12=Linda moreninha
TTITLE13=O amor e a flor
EXTD=
EXTT0=
EXTT1=
EXTT2=
EXTT3=
EXTT4=
EXTT5=
EXTT6=
EXTT7=
EXTT8=
EXTT9=
EXTT10=
EXTT11=
EXTT12=
EXTT13=
PLAYORDER=
